<?xml version="1.0" encoding="UTF-8"?>
<svg version="1.1" xmlns="http://www.w3.org/2000/svg" width="2000" height="3000">
<path d="M0 0 C11.0482167 4.69670886 17.41829803 20.68524131 22 31 C30.12231221 52.10146541 28.66871039 77.9367985 20.47265625 98.890625 C18.10068472 103.89881953 15.19876411 108.48301322 12 113 C12.474375 113.598125 12.94875 114.19625 13.4375 114.8125 C16.90863146 119.67208405 16.57695341 125.26251888 16 131 C14.69831083 134.93336512 12.73704565 137.45599012 9.375 139.9375 C7 141 7 141 5 141 C5 352.2 5 563.4 5 781 C6.65 781.33 8.3 781.66 10 782 C12.82003512 783.43672244 15.3883772 785.2161922 18 787 C18.845625 787.556875 19.69125 788.11375 20.5625 788.6875 C31.36355751 798.93465713 36.61866543 813.86484318 37.21875 828.50390625 C37.82742042 852.13869356 31.08662645 872.40288281 20 893 C19.43539062 894.0530835 19.43539062 894.0530835 18.859375 895.12744141 C14.10564518 903.9436295 9.07885311 912.56786187 3.875 921.125 C-41.14028868 995.42519518 -30.72687609 1084.02420364 -11.47265625 1164.99267578 C-3.26071128 1198.36552818 8.28911119 1230.52789224 22 1262 C42.01475643 1207.9430952 54.05936529 1131.66178531 29.98974609 1077.12841797 C24.73503323 1065.82832258 18.68361682 1054.95390714 12.21044922 1044.31347656 C-0.68331958 1023.09646969 -9.96764576 1000.62933744 -5.31640625 975.2734375 C-1.90228535 964.30858448 4.30632272 956.01620637 14.125 950.125 C20.57541292 947.67879375 28.87571017 947.9965776 35.375 950.125 C42.3628215 953.27983924 46.72178037 958.19138999 50 965 C52.19855984 972.0710438 52.01165908 979.73188588 48.875 986.4375 C45.76770094 991.92148673 41.8542282 995.5203085 36 998 C31.00704678 998.70857092 27.08335642 998.55152691 22.5625 996.25 C19.55109922 993.60584321 17.31574044 991.61816973 16.53125 987.59765625 C16.47683495 983.18323525 16.53514969 980.71180203 19 976.9375 C23.01096538 974.34708486 25.21157511 974 30 974 C32.9375 975.1875 32.9375 975.1875 35 977 C35.8125 979.1875 35.8125 979.1875 36 981 C35.01 981.33 34.02 981.66 33 982 C32.34 981.34 31.68 980.68 31 980 C27.8357765 979.66338048 25.81486618 979.50056589 23.0625 981.1875 C21.79455145 983.00030988 21.79455145 983.00030988 22 985.4375 C23.36023027 988.92309008 24.74741488 990.16158232 28 992 C32.29824018 991.84649142 36.20448728 991.06042119 40 989 C41.29165425 987.25160856 41.29165425 987.25160856 42 985 C42.37125 984.071875 42.7425 983.14375 43.125 982.1875 C44.91003265 975.68488105 44.07952911 970.97099688 41.203125 965.015625 C38.61988822 960.68786467 34.78150705 958.30404738 30 957 C23.46715728 956.17242299 18.4113947 957.19066294 13 961 C5.31369856 968.51161277 2.88664789 977.87256928 2.6875 988.375 C2.63149361 1006.37172034 10.570537 1022.19317876 19.75 1037.25 C20.46997845 1038.44929593 21.18871618 1039.64933752 21.90625 1040.85009766 C24.42265483 1045.0597422 26.9475898 1049.26414385 29.49023438 1053.45800781 C38.05644273 1067.64538046 43.9621241 1082.70389863 47.875 1098.8125 C48.06610352 1099.59842529 48.25720703 1100.38435059 48.45410156 1101.1940918 C51.75916692 1115.86144402 52.40800775 1130.46682041 52.375 1145.4375 C52.37445618 1146.37242279 52.37391235 1147.30734558 52.37335205 1148.27059937 C52.26356537 1189.66500708 45.61772558 1234.52149401 29.51953125 1272.89453125 C28.7421368 1277.54136271 30.22610687 1280.71267629 32 1285 C32.68002075 1286.64633423 32.68002075 1286.64633423 33.3737793 1288.32592773 C34.45015833 1290.90544896 35.53911716 1293.47939546 36.63305664 1296.05151367 C47.86407839 1322.50555364 58.03731017 1349.60204262 63 1378 C63.24105469 1379.23105469 63.48210937 1380.46210937 63.73046875 1381.73046875 C67.29727195 1402.14981859 66.09478003 1421.6322362 54.87109375 1439.4453125 C49.33985364 1446.99736058 42.58214883 1450.57660607 34 1454 C34.64066406 1454.23074219 35.28132812 1454.46148438 35.94140625 1454.69921875 C47.34850185 1459.0002548 53.05146521 1464.1255297 59 1475 C74.29569132 1509.20425215 59.9152756 1551.4260275 47.5390625 1584.45703125 C43.77663932 1594.26437412 39.76088911 1603.969685 35.69921875 1613.65625 C35.24208496 1614.749375 34.78495117 1615.8425 34.31396484 1616.96875 C33.49284252 1618.86303739 32.63417491 1620.7419866 31.72119141 1622.59375 C27.28492321 1631.59939345 30.78076521 1638.87750788 33.625 1648 C44.63273088 1684.31555016 51.47092194 1721.86719057 51.3125 1759.875 C51.31067719 1760.79032501 51.30885437 1761.70565002 51.30697632 1762.64871216 C51.26140472 1776.27194741 50.91227612 1789.63845461 48 1803 C47.73461426 1804.22783203 47.73461426 1804.22783203 47.46386719 1805.48046875 C42.54683175 1827.39057483 32.9275944 1847.38455538 20.875 1866.25 C8.71676543 1885.29669823 -2.92457852 1906.71562521 2.125 1930.0625 C4.24647079 1937.83789057 8.1204558 1944.53759295 15 1949 C20.52631232 1950.84210411 26.8797929 1951.07524045 32.42578125 1949.1640625 C36.74703489 1946.73895217 39.43813503 1943.80906253 41.37890625 1939.24609375 C42.89997293 1933.74538093 42.75923584 1928.81556396 40.5625 1923.5625 C40.046875 1922.716875 39.53125 1921.87125 39 1921 C38.505 1919.515 38.505 1919.515 38 1918 C33.7114937 1915.53086001 29.80722405 1915.54216914 25 1916 C22.37283423 1917.45997987 22.37283423 1917.45997987 21 1920 C20.66551741 1923.167832 20.66551741 1923.167832 21 1926 C23.4264363 1927.52775619 24.60892503 1928.04888437 27.5 1927.6875 C28.325 1927.460625 29.15 1927.23375 30 1927 C30.763125 1926.814375 31.52625 1926.62875 32.3125 1926.4375 C32.869375 1926.293125 33.42625 1926.14875 34 1926 C34.33 1926.66 34.66 1927.32 35 1928 C32.11068728 1931.6116409 30.72168143 1932.89690265 26.0625 1933.5625 C21.8630563 1933.29208128 19.21002352 1931.74026398 16 1929 C14.79356434 1925.38069302 14.67731441 1922.80768995 15 1919 C17.05381203 1915.18577766 19.10546637 1911.99989565 23 1910 C28.29437424 1908.64757569 33.02915173 1908.59390185 38.078125 1910.78515625 C43.31321093 1914.09432642 47.1780412 1919.10643373 49 1925 C49.98881102 1934.10746995 49.7794921 1942.49087888 44 1950 C38.40892389 1955.82662033 31.24420742 1958.82446168 23.19921875 1959.09375 C14.235965 1958.59785768 7.71899897 1955.60270163 1.59765625 1949.03515625 C-6.92466854 1938.17908971 -9.05204347 1924.43156872 -8 1911 C-5.0668179 1889.0807167 5.88246769 1870.21859996 17.25 1851.625 C35.12590573 1822.31557164 42.61276106 1789.27304782 41 1755 C40.95891113 1754.10522949 40.91782227 1753.21045898 40.87548828 1752.28857422 C39.05372967 1716.39469136 33.04003335 1680.23936611 22 1646 C-15.75054006 1721.80799507 -37.30573963 1823.66214816 -16.90234375 1943.40283203 C-10.30283939 1962.39783404 -0.47112041 1979.69410637 9.9375 1996.8125 C19.77905657 2013.05788604 29.19700548 2029.50345433 34 2048 C34.26031006 2048.99773438 34.26031006 2048.99773438 34.52587891 2050.015625 C39.40417314 2069.62530629 38.54278446 2090.26904148 28.74609375 2108.25 C22.93861329 2117.39645692 16.23345852 2123.22007388 6 2127 C5.01 2127 4.02 2127 3 2127 C3 2338.2 3 2549.4 3 2767 C4.65 2767.66 6.3 2768.32 8 2769 C13.04327754 2774.27251743 14.34157144 2777.54185435 14.30078125 2784.76171875 C13.75284785 2788.83919715 11.87747796 2792.37914964 10 2796 C10.8971875 2796.35964844 10.8971875 2796.35964844 11.8125 2796.7265625 C18.08694204 2800.37918412 21.0799406 2809.71640755 23.12109375 2816.34375 C30.00304807 2844.97267997 27.44632265 2870.54217193 12 2896 C5.04832075 2905.90679383 5.04832075 2905.90679383 0 2908 C-15.79433468 2891.66273507 -25.46351005 2869.0805269 -25.1484375 2846.30078125 C-24.41378823 2829.96450143 -22.66073277 2808.89230679 -10 2797 C-10.28875 2796.443125 -10.5775 2795.88625 -10.875 2795.3125 C-11.24625 2794.549375 -11.6175 2793.78625 -12 2793 C-12.556875 2791.948125 -12.556875 2791.948125 -13.125 2790.875 C-14.78354413 2785.42549786 -14.70361376 2780.07175164 -12.875 2774.6875 C-10.55657114 2771.36441863 -8.28417332 2769.37578496 -5 2767 C-4.34 2767 -3.68 2767 -3 2767 C-3 2556.13 -3 2345.26 -3 2128 C-6.63 2127.67 -10.26 2127.34 -14 2127 C-23.94028193 2123.88617675 -30.29226262 2119.47859984 -35.4375 2110.3125 C-39.88787399 2101.73916374 -40.33944531 2092.23798815 -38.31640625 2082.81640625 C-35.25865568 2073.66853006 -30.60987678 2068.42839085 -22.1484375 2063.9453125 C-16.53879758 2061.47707094 -11.29305741 2061.23564753 -5.4375 2063.1875 C-0.10524229 2065.99905406 3.73181716 2068.53975021 6 2074.25 C7.37457085 2079.18857789 7.11477134 2083.31664373 5 2088 C1.62263002 2092.05284398 -0.80719313 2093.24923274 -6 2094 C-10.427288 2094.24670129 -13.259067 2093.52512978 -17 2091 C-17.66 2090.34 -18.32 2089.68 -19 2089 C-19 2087.68 -19 2086.36 -19 2085 C-17.1875 2084.3125 -17.1875 2084.3125 -15 2084 C-14.566875 2084.474375 -14.13375 2084.94875 -13.6875 2085.4375 C-11.95816095 2087.34998564 -11.95816095 2087.34998564 -8.5625 2087.375 C-5.10656272 2087.19217174 -5.10656272 2087.19217174 -2.5625 2085.9375 C-0.71791727 2083.97308401 -0.71791727 2083.97308401 -0.4375 2080.6875 C-0.99307863 2077.04537341 -1.75590306 2074.86667814 -4.3203125 2072.171875 C-7.65596118 2069.84467825 -11.02941231 2069.62817239 -15 2070 C-21.4151044 2071.58628036 -24.49207974 2075.41908253 -27.87109375 2080.87890625 C-31.00947388 2086.77558587 -30.82101889 2093.86707442 -29.5390625 2100.3203125 C-27.59969164 2106.13842509 -24.17485723 2110.99290635 -18.9609375 2114.2890625 C-12.08367464 2117.66694072 -4.83433627 2119.09071047 2.625 2116.9375 C11.64123545 2113.37553044 16.93138156 2107.72881642 21 2099 C29.44818073 2077.97401665 25.66392877 2056.59381621 17.03759766 2036.33544922 C11.58482213 2024.06221376 4.63687998 2012.67477758 -2.375 2001.25 C-25.93811771 1962.82289004 -40.98551194 1922.79544497 -41.203125 1877.26171875 C-41.21013931 1876.27093323 -41.21715363 1875.28014771 -41.22438049 1874.25933838 C-41.24181485 1871.06867884 -41.24823601 1867.87820547 -41.25 1864.6875 C-41.25067474 1863.59253204 -41.25134949 1862.49756409 -41.25204468 1861.36941528 C-41.23478563 1843.70631589 -40.49160204 1826.50627544 -38 1809 C-37.82307617 1807.71464355 -37.64615234 1806.42928711 -37.46386719 1805.10498047 C-34.84298296 1786.22424393 -31.37170916 1767.55866002 -27 1749 C-26.71817871 1747.79617676 -26.43635742 1746.59235352 -26.14599609 1745.35205078 C-18.68514063 1713.93900664 -8.56175376 1682.88389286 4.34375 1653.27734375 C4.63874893 1652.60022339 4.93374786 1651.92310303 5.23768616 1651.22546387 C6.71043713 1647.85189331 8.19422466 1644.48383208 9.69702148 1641.12353516 C10.24463944 1639.88574685 10.79224732 1638.64795408 11.33984375 1637.41015625 C12.07255493 1635.77252319 12.07255493 1635.77252319 12.82006836 1634.10180664 C14.77278684 1628.96849643 15.56895521 1625.31896178 13.4375 1620.17578125 C13.06044922 1619.24781738 12.68339844 1618.31985352 12.29492188 1617.36376953 C11.86759766 1616.35685059 11.44027344 1615.34993164 11 1614.3125 C10.55720703 1613.23597168 10.11441406 1612.15944336 9.65820312 1611.05029297 C6.33758258 1603.03146744 2.87940358 1595.07153432 -0.56469727 1587.10522461 C-10.73792303 1563.56285221 -20.41392104 1540.12691404 -26 1515 C-26.26554688 1513.80761719 -26.53109375 1512.61523438 -26.8046875 1511.38671875 C-29.75721976 1495.47135651 -29.6597129 1479.59533769 -21.4609375 1465.3203125 C-17.40239438 1459.45369804 -12.5499562 1456.62261828 -6 1454 C-6.58007812 1453.72027344 -7.16015625 1453.44054688 -7.7578125 1453.15234375 C-17.1423844 1448.33616906 -22.12674772 1441.78136537 -26 1432 C-38.33826949 1392.39404939 -10.52080086 1343.29676678 5.24243164 1307.89477539 C6.8531416 1304.27380698 8.43150929 1300.6394831 10 1297 C10.51175781 1295.8351709 11.02351562 1294.6703418 11.55078125 1293.47021484 C14.59615518 1286.17662819 16.12246304 1281.62846797 13.26367188 1274.04736328 C12.32471621 1271.84963987 11.2973321 1269.71063434 10.25 1267.5625 C-13.75842103 1215.99085794 -29.00125841 1160.69626326 -37.25 1104.5 C-37.40122314 1103.47648437 -37.55244629 1102.45296875 -37.70825195 1101.3984375 C-40.37437299 1082.17707478 -41.38159816 1063.01602605 -41.3125 1043.625 C-41.31067719 1042.55493713 -41.30885437 1041.48487427 -41.30697632 1040.38238525 C-41.26216872 1024.7312529 -40.88523097 1009.42576243 -38 994 C-37.83371094 993.05769531 -37.66742187 992.11539063 -37.49609375 991.14453125 C-31.55787927 958.1984376 -17.3944764 930.26053502 0 902 C15.76209201 876.32513092 31.30149735 847.82833727 24.07421875 816.76953125 C21.2509614 806.86246455 16.75656384 798.36959245 7.9765625 792.69140625 C1.20183802 789.15729908 -6.24799455 788.65969077 -13.58984375 790.73046875 C-21.24444164 793.85089551 -25.2771579 798.82023309 -29 806 C-31.1150372 812.3451116 -30.91346055 819.65335555 -28.4375 825.875 C-25.73259271 831.18821074 -21.67297234 835.10900922 -16 837 C-10.64519163 837.34547151 -7.3615957 837.46362011 -3 834 C-0.49935546 830.2490332 -0.11948132 827.41176549 -1 823 C-2.96276905 820.72191394 -2.96276905 820.72191394 -6 820 C-10.24195142 820.2232606 -13.27340159 821.06768971 -17 823 C-17.66 822.67 -18.32 822.34 -19 822 C-18.74310052 818.83157307 -18.41729253 817.39037043 -16.0625 815.1875 C-11.05481253 813.24574363 -6.07551807 813.08937175 -0.90234375 814.62109375 C2.54105489 816.2660294 4.50700453 818.29922509 6.0625 821.6875 C7.47295309 826.46884726 7.01189313 830.46337823 5 835 C1.75118783 839.84413682 -1.33654884 843.24296545 -7 845 C-15.00740946 846.16851597 -21.39144747 844.63500869 -28 840 C-34.70616601 834.20597534 -38.44875538 827.21693359 -39.37890625 818.4140625 C-39.70210716 808.13418854 -38.3016839 799.56712018 -31.5625 791.5625 C-30.39610067 790.35426778 -29.21076408 789.16377096 -28 788 C-27.236875 787.2575 -26.47375 786.515 -25.6875 785.75 C-17.39232381 780.34848992 -11.35856136 780 -1 780 C-1 569.13 -1 358.26 -1 141 C-2.65 140.34 -4.3 139.68 -6 139 C-9.83026584 134.95086183 -11.76845894 131.36171876 -12.3125 125.8125 C-12.02641333 122.32224269 -11.35613452 120.20678912 -10.125 117 C-9.21985768 114.47000388 -9.21985768 114.47000388 -9 112 C-10.12997865 109.87325156 -11.51718549 108.54581544 -13.2421875 106.87109375 C-22.53482901 96.97959312 -24.55684579 77.96226072 -25 65 C-25.0515625 64.13632813 -25.103125 63.27265625 -25.15625 62.3828125 C-25.9696645 39.53942195 -15.77200674 17.90860622 -1 1 C-0.67 0.67 -0.34 0.34 0 0 Z M0 12 C-1.53305061 13.9898997 -2.9025162 15.9503715 -4.25 18.0625 C-4.64968994 18.68793701 -5.04937988 19.31337402 -5.46118164 19.95776367 C-17.78241853 39.88225628 -19.63008985 61.44504447 -14.84301758 84.07763672 C-12.79236922 92.76735736 -9.60689902 102.67517069 -2 108 C0.91095463 109.08415064 0.91095463 109.08415064 4 108 C13.964247 100.20093306 17.26947244 86.36497609 18.76416016 74.39160156 C21.04959977 51.21544584 16.9931152 30.42011296 2 12 C1.34 12 0.68 12 0 12 Z M22 1294 C19.38621944 1299.16350489 16.88517461 1304.35028779 14.53125 1309.63671875 C14.05563881 1310.70033882 14.05563881 1310.70033882 13.57041931 1311.78544617 C-7.26272992 1356.55083094 -7.26272992 1356.55083094 -20 1404 C-20.13019531 1404.77214844 -20.26039063 1405.54429688 -20.39453125 1406.33984375 C-20.67327825 1408.21674019 -20.83977073 1410.10929465 -21 1412 C-21.06445312 1412.73992187 -21.12890625 1413.47984375 -21.1953125 1414.2421875 C-21.6629481 1424.00018379 -18.92778385 1433.89951606 -12.5546875 1441.4140625 C-7.17582513 1446.90104271 -2.39490985 1447.70771107 5 1448 C4.61328125 1447.59910156 4.2265625 1447.19820312 3.828125 1446.78515625 C-3.40772545 1438.88661652 -6.32358988 1430.75936361 -6 1420 C-4.83057125 1411.02688322 -1.87574009 1402.84801056 5.390625 1397.11328125 C7.55450578 1395.65368242 9.72977007 1394.28646363 12 1393 C12.203125 1395.32421875 12.203125 1395.32421875 12 1398 C10.609375 1399.51953125 10.609375 1399.51953125 8.75 1400.8125 C3.87355692 1404.62283812 1.92034744 1409.23895769 0 1415 C-0.84801086 1423.63759632 -0.36743652 1430.92416326 5 1438 C7.5021201 1440.30787048 10.09693991 1442.22790873 13 1444 C16.78556979 1442.29844492 18.12442627 1440.75114747 20 1437 C22.09957869 1431.2738763 21.28551445 1425.45356501 19.06640625 1419.921875 C17.88689179 1417.79615663 16.5667383 1416.36294272 14.8125 1414.6875 C13.4203125 1413.3571875 13.4203125 1413.3571875 12 1412 C12 1411.01 12 1410.02 12 1409 C16.85971556 1410.14346248 18.96771834 1412.94405887 21.70703125 1416.859375 C25.07164332 1422.42979015 25.85982604 1428.63128848 25 1435 C23.88068405 1438.7618749 22.51524026 1442.38101098 21 1446 C29.6695571 1446.65157423 35.32934268 1444.82411838 42.6875 1440.375 C52.23797212 1430.56640701 56.36256719 1416.16860647 56.21484375 1402.7421875 C54.22371406 1368.06032861 41.14455217 1335.13635064 27.21142578 1303.73535156 C25.77937303 1300.50183301 24.3834238 1297.2545631 23 1294 C22.67 1294 22.34 1294 22 1294 Z M6 1454 C11.9589999 1455.88178944 15.14210361 1456.19671115 21 1454 C21 1453.67 21 1453.34 21 1453 C19.25181409 1452.77695559 17.50129677 1452.5721355 15.75 1452.375 C14.77546875 1452.25898437 13.8009375 1452.14296875 12.796875 1452.0234375 C9.86570607 1451.99887463 8.45471036 1452.4687283 6 1454 Z M-11.0703125 1463.62890625 C-18.68412782 1471.78656553 -21.41879904 1481.99130485 -21.26171875 1492.90234375 C-19.84181476 1520.93332635 -7.98380396 1547.85026684 3.37619019 1573.13356018 C5.57892683 1578.03775369 7.73318301 1582.96176184 9.87109375 1587.89453125 C10.51460887 1589.37713306 11.15816318 1590.85971786 11.80175781 1592.34228516 C12.73816274 1594.4996509 13.67433567 1596.65711361 14.60925293 1598.81512451 C15.46967078 1600.79860238 16.33392899 1602.78036234 17.19921875 1604.76171875 C17.93918091 1606.462677 17.93918091 1606.462677 18.6940918 1608.19799805 C19.96805441 1611.11597748 19.96805441 1611.11597748 22 1614 C39.89532243 1580.9577835 64.43952258 1527.41373438 54.375 1488.875 C51.19396983 1478.87588769 47.08321818 1469.82853671 38 1464 C32.33957916 1461.2342252 27.23410977 1460.65995765 21 1461 C21.28875 1461.680625 21.5775 1462.36125 21.875 1463.0625 C25.57027189 1472.71126548 26.074948 1479.82813579 22.34765625 1489.43359375 C20.35601091 1493.22637922 17.69579615 1495.84260175 14 1498 C13.34 1498 12.68 1498 12 1498 C12 1495 12 1495 14.3125 1492.625 C15.199375 1491.75875 16.08625 1490.8925 17 1490 C20.6289894 1484.68612267 21.53710377 1480.44524529 21 1474 C19.54284179 1470.18100241 17.8997429 1466.8997429 15 1464 C10.55870363 1464.24007007 8.0659061 1465.85744625 5 1469 C-0.11003645 1476.28005192 -1.1380255 1483.26082307 0 1492 C1.68505899 1499.11689621 5.09032249 1504.60413151 11 1509 C11.66 1509 12.32 1509 13 1509 C12.67 1510.65 12.34 1512.3 12 1514 C4.74002464 1511.16683888 0.0660995 1505.6072635 -3.375 1498.75 C-7.1206151 1489.29678094 -6.72308428 1479.39383187 -3 1470 C-1.57296882 1467.69821723 -0.07421882 1465.66793969 1.6953125 1463.62109375 C3.22077515 1461.91843255 3.22077515 1461.91843255 4 1459 C-1.44877178 1459 -6.73080594 1460.21461524 -11.0703125 1463.62890625 Z M-10.44921875 2810.86328125 C-18.39478635 2830.02331363 -20.55244373 2853.41413617 -13 2873 C-9.4465182 2881.25005524 -5.34943162 2888.78059315 0 2896 C5.62299607 2894.12566798 8.26106793 2887.07544861 11 2882 C16.36716866 2870.94994688 19.55723157 2860.1294578 19.375 2847.8125 C19.36557373 2846.81436279 19.35614746 2845.81622559 19.34643555 2844.7878418 C19.04004977 2829.5991635 16.80802139 2812.75511486 5.75390625 2801.390625 C3.9409218 2799.79052386 3.9409218 2799.79052386 1 2799 C-4.83518999 2800.94506333 -7.74850045 2805.52736073 -10.44921875 2810.86328125 Z " fill="#111516" transform="translate(988,46)"/>
</svg>







